<?xml version="1.0" standalone="no"?>
<!DOCTYPE svg PUBLIC "-//W3C//DTD SVG 20010904//EN"
 "http://www.w3.org/TR/2001/REC-SVG-20010904/DTD/svg10.dtd">
<svg version="1.0" xmlns="http://www.w3.org/2000/svg"
 width="160.000000pt" height="160.000000pt" viewBox="0 0 160.000000 160.000000"
 preserveAspectRatio="xMidYMid meet">
<metadata>
Created by potrace 1.11, written by Peter Selinger 2001-2013
</metadata>
<g transform="translate(0.000000,160.000000) scale(0.100000,-0.100000)"
fill="#000000" stroke="none">
<path d="M684 1411 c-65 -40 -101 -147 -83 -245 5 -27 27 -90 49 -140 l40 -91
-29 -60 c-67 -136 -164 -258 -249 -315 -122 -81 -232 -22 -232 125 0 31 7 72
16 93 29 71 107 132 186 147 20 4 39 13 42 21 8 22 -27 34 -103 34 -130 0
-234 -59 -289 -164 -22 -43 -27 -64 -27 -132 0 -72 3 -86 30 -129 22 -36 45
-57 85 -78 49 -26 63 -28 122 -24 163 11 319 142 439 369 l35 69 41 -88 c23
-49 43 -95 46 -105 3 -9 -10 -52 -29 -96 -19 -44 -37 -103 -41 -130 -5 -45 -3
-53 21 -77 24 -23 33 -27 68 -22 46 6 81 35 111 92 18 33 22 56 21 130 -1 57
-7 106 -17 133 l-16 42 51 68 c51 67 146 180 237 282 l50 55 -34 -91 c-42
-113 -82 -307 -91 -440 -11 -171 25 -333 89 -402 44 -47 138 -80 191 -66 31 8
37 44 7 44 -34 0 -79 48 -102 108 -30 81 -37 242 -15 390 38 256 128 473 250
603 46 49 48 53 30 66 -10 7 -44 13 -81 13 l-63 0 -102 -94 c-116 -106 -279
-285 -370 -403 -33 -43 -62 -78 -63 -78 -2 0 -29 49 -60 110 -62 120 -61 111
-26 239 34 127 24 231 -24 250 -31 12 -80 6 -111 -13z"/>
</g>
</svg>
